<?xml version="1.0" encoding="UTF-8" standalone="no"?>
<svg
   height="80"
   viewBox="0 -960 1600 1600"
   width="80"
   fill="#48752c"
   version="1.1"
   id="svg1"
   sodipodi:docname="logo.svg"
   xml:space="preserve"
   inkscape:version="1.4.2 (f4327f4, 2025-05-13)"
   inkscape:export-filename="logo.png"
   inkscape:export-xdpi="96"
   inkscape:export-ydpi="96"
   xmlns:inkscape="http://www.inkscape.org/namespaces/inkscape"
   xmlns:sodipodi="http://sodipodi.sourceforge.net/DTD/sodipodi-0.dtd"
   xmlns="http://www.w3.org/2000/svg"
   xmlns:svg="http://www.w3.org/2000/svg"><defs
     id="defs1" /><sodipodi:namedview
     id="namedview1"
     pagecolor="#ffffff"
     bordercolor="#000000"
     borderopacity="0"
     inkscape:showpageshadow="2"
     inkscape:pageopacity="0.0"
     inkscape:pagecheckerboard="true"
     inkscape:deskcolor="#d1d1d1"
     inkscape:zoom="5.7673397"
     inkscape:cx="24.274624"
     inkscape:cy="59.212742"
     inkscape:window-width="1920"
     inkscape:window-height="1001"
     inkscape:window-x="-9"
     inkscape:window-y="-9"
     inkscape:window-maximized="1"
     inkscape:current-layer="svg1"
     inkscape:export-bgcolor="#ffffffff" /><circle
     style="fill:#e6e6e6;stroke-width:59.7519"
     id="path2"
     cx="800"
     cy="-160"
     r="800" /><g
     style="fill:#3e9c36;fill-opacity:1"
     id="g4"
     transform="matrix(0.92772492,0,0,0.92772492,354.69204,285.30796)"><path
       d="M 480,-80 Q 340,-115 250,-242.5 160,-370 160,-522 v -238 l 320,-120 320,120 v 238 q 0,152 -90,279.5 Q 620,-115 480,-80 Z m 0,-62 Q 586,-177 655.5,-270.5 725,-364 737,-480 H 480 v -335 l -260,97 v 196 q 0,12 0.5,20.5 0.5,8.5 2.5,21.5 h 257 z"
       id="path1-1"
       style="fill:#3e9c36;fill-opacity:1" /></g><g
     style="fill:#3a3a3a;fill-opacity:1"
     id="g3"
     transform="matrix(2,0,0,2,-3018.6124,397.99643)"><path
       d="m 1749.3062,-38.998215 -240,-240.000005 242,-242 43,43 -199,199 197,197.000002 z m 318,2 -43,-43.000003 199,-199.000002 -197,-197 43,-43 240,240 z"
       id="path1"
       style="fill:#3a3a3a;fill-opacity:1" /></g></svg>
